<?xml version="1.0" encoding="UTF-8" standalone="no"?>
<!-- Created with Inkscape (http://www.inkscape.org/) -->

<svg
   xmlns:dc="http://purl.org/dc/elements/1.1/"
   xmlns:cc="http://creativecommons.org/ns#"
   xmlns:rdf="http://www.w3.org/1999/02/22-rdf-syntax-ns#"
   xmlns:svg="http://www.w3.org/2000/svg"
   xmlns="http://www.w3.org/2000/svg"
   xmlns:sodipodi="http://sodipodi.sourceforge.net/DTD/sodipodi-0.dtd"
   xmlns:inkscape="http://www.inkscape.org/namespaces/inkscape"
   id="svg2"
   version="1.1"
   inkscape:version="0.91 r"
   xml:space="preserve"
   width="1024"
   height="1024"
   viewBox="0 0 1023.9999 1024"
   sodipodi:docname="logo.svg"><metadata
     id="metadata8"><rdf:RDF><cc:Work
         rdf:about=""><dc:format>image/svg+xml</dc:format><dc:type
           rdf:resource="http://purl.org/dc/dcmitype/StillImage" /><dc:title /></cc:Work></rdf:RDF></metadata><defs
     id="defs6"><clipPath
       clipPathUnits="userSpaceOnUse"
       id="clipPath20"><path
         d="m 0,595.28 841.89,0 L 841.89,0 0,0 0,595.28 Z"
         id="path22"
         inkscape:connector-curvature="0" /></clipPath><clipPath
       clipPathUnits="userSpaceOnUse"
       id="clipPath76"><path
         d="m 591,409.94 0,-43.359 c 0,-11.765 9.538,-21.302 21.302,-21.302 l 0,0 103.397,0 c 11.764,0 21.301,9.537 21.301,21.302 l 0,0 0,42.874 c -6.074,-8.334 -37.874,-27.259 -72.094,0.116 l 0,0 c -9.33,7.464 -20.757,9.944 -31.822,9.944 l 0,0 c -20.31,0.001 -39.403,-8.354 -42.084,-9.575"
         id="path78"
         inkscape:connector-curvature="0" /></clipPath><linearGradient
       x1="0"
       y1="0"
       x2="1"
       y2="0"
       gradientUnits="userSpaceOnUse"
       gradientTransform="matrix(0,-74.236366,-74.236366,0,664.00012,419.5155)"
       spreadMethod="pad"
       id="linearGradient84"><stop
         style="stop-opacity:1;stop-color:#00647d"
         offset="0"
         id="stop86" /><stop
         style="stop-opacity:1;stop-color:#37aae1"
         offset="1"
         id="stop88" /></linearGradient><clipPath
       clipPathUnits="userSpaceOnUse"
       id="clipPath96"><path
         d="m 0,595.28 841.89,0 L 841.89,0 0,0 0,595.28 Z"
         id="path98"
         inkscape:connector-curvature="0" /></clipPath><filter
       inkscape:collect="always"
       style="color-interpolation-filters:sRGB"
       id="filter4445"
       x="-0.59083773"
       width="2.1816755"
       y="-0.595782"
       height="2.191564"><feGaussianBlur
         inkscape:collect="always"
         stdDeviation="67.979809"
         id="feGaussianBlur4447" /></filter><filter
       inkscape:collect="always"
       style="color-interpolation-filters:sRGB"
       id="filter4445-4"
       x="-0.59083772"
       width="2.1816754"
       y="-0.59578198"
       height="2.1915641"><feGaussianBlur
         inkscape:collect="always"
         stdDeviation="67.979809"
         id="feGaussianBlur4447-7" /></filter></defs><sodipodi:namedview
     pagecolor="#ffffff"
     bordercolor="#666666"
     borderopacity="1"
     objecttolerance="10"
     gridtolerance="10"
     guidetolerance="10"
     inkscape:pageopacity="0"
     inkscape:pageshadow="2"
     inkscape:window-width="1258"
     inkscape:window-height="1001"
     id="namedview4"
     showgrid="false"
     inkscape:zoom="0.56825205"
     inkscape:cx="513.17192"
     inkscape:cy="692.08814"
     inkscape:window-x="0"
     inkscape:window-y="54"
     inkscape:window-maximized="0"
     inkscape:current-layer="g10"
     fit-margin-top="0"
     fit-margin-left="0"
     fit-margin-right="0"
     fit-margin-bottom="0" /><g
     id="g10"
     inkscape:groupmode="layer"
     inkscape:label="logo_gagnant"
     transform="matrix(1.25,0,0,-1.25,15.2364,1540.4633)"><g
       id="g64"
       transform="matrix(5.2510136,0,0,5.2510136,780.71392,551.28279)"><path
         d="m 0,0 c 0,-11.765 -9.537,-21.302 -21.302,-21.302 l -103.396,0 C -136.463,-21.302 -146,-11.765 -146,0 l 0,103.397 c 0,11.764 9.537,21.301 21.302,21.301 l 103.396,0 C -9.537,124.698 0,115.161 0,103.397 L 0,0 Z"
         style="fill:#00647d;fill-opacity:1;fill-rule:nonzero;stroke:none"
         id="path66"
         inkscape:connector-curvature="0" /></g><g
       id="g68"
       transform="matrix(5.2510136,0,0,5.2510136,780.71392,551.28279)"><path
         d="m 0,0 c 0,-11.765 -9.537,-21.302 -21.302,-21.302 l -103.396,0 C -136.463,-21.302 -146,-11.765 -146,0 l 0,103.397 c 0,11.764 9.537,21.301 21.302,21.301 l 103.396,0 C -9.537,124.698 0,115.161 0,103.397 L 0,0 Z"
         style="fill:none;stroke:#00647d;stroke-width:10;stroke-linecap:butt;stroke-linejoin:miter;stroke-miterlimit:10;stroke-dasharray:none;stroke-opacity:1"
         id="path70"
         inkscape:connector-curvature="0" /></g><g
       id="g72"
       transform="matrix(5.2510136,0,0,5.2510136,-3089.2837,-1373.6374)"><g
         id="g74"
         clip-path="url(#clipPath76)"><g
           id="g80"><g
             id="g82"><path
               d="m 591,409.94 0,-43.359 c 0,-11.765 9.538,-21.302 21.302,-21.302 l 0,0 103.397,0 c 11.764,0 21.301,9.537 21.301,21.302 l 0,0 0,42.874 c -6.074,-8.334 -37.874,-27.259 -72.094,0.116 l 0,0 c -9.33,7.464 -20.757,9.944 -31.822,9.944 l 0,0 c -20.31,0.001 -39.403,-8.354 -42.084,-9.575"
               style="fill:url(#linearGradient84);stroke:none"
               id="path90"
               inkscape:connector-curvature="0" /></g></g></g></g><g
       id="g92"
       transform="matrix(5.2510136,0,0,5.2510136,-3089.2837,-1373.6374)"><g
         id="g94"
         clip-path="url(#clipPath96)"><g
           id="g100"
           transform="translate(648.2004,431.1026)"><path
             d="m 0,0 c 13.493,-0.51 24.018,-11.861 23.508,-25.355 -0.51,-13.493 -11.861,-24.018 -25.354,-23.508 -13.493,0.51 -24.018,11.862 -23.509,25.355 C -24.845,-10.015 -13.493,0.51 0,0 m 72.292,-64.132 c 0,0 0.33,0.449 0.882,1.302 3.982,5.925 7.231,12.479 9.382,19.505 4.417,13.193 3.836,22.531 3.836,22.531 0,38.773 -31.432,70.205 -70.205,70.205 -38.773,0 -70.205,-31.432 -70.205,-70.205 0,-13.938 5.715,-28.39 12.555,-40.219 0.016,-0.028 -4.51,11.547 -4.51,11.547 -3.597,11.689 -4.133,24.802 0.624,38.038 0.425,1.181 3.329,6.181 9.752,4.595 5.643,-1.394 6.342,-7.61 5.663,-10.37 -0.637,-2.589 -1.252,-7.664 -0.618,-11.556 2.745,-16.841 17.464,-27.845 33.952,-25.618 15.996,2.16 29.198,17.167 25.643,34.892 -3.327,16.595 -16.456,26.85 -36.527,25.113 -2.655,-0.23 -7.079,1.878 -7.621,6.962 -0.89,8.364 9.208,9.237 13.132,9.845 25.382,3.932 54.254,-12.871 60.158,-42.267 -2.031,23.451 -23.156,42.691 -46.99,45.638 -0.669,0.082 -2.914,1.516 -2.493,3.99 0.353,2.074 2.01,3.142 4.051,3.027 C 42.135,31.158 62.68,12.857 70.2,-6.135 63.069,15.499 47.034,27.563 24.943,33.87 c -0.615,0.175 -2.85,1.427 -2.3,3.953 0.559,2.564 2.925,2.74 3.969,2.572 C 41.531,37.988 54.041,31.351 65.379,21.185 82.006,6.276 84.377,-15.4 84.57,-20.276 c 0.573,-14.505 -3.354,-26.719 -7.015,-34.55 -1.661,-3.484 -3.467,-6.616 -5.263,-9.306"
             style="fill:#ffffff;fill-opacity:1;fill-rule:nonzero;stroke:none"
             id="path102"
             inkscape:connector-curvature="0" /></g></g></g><ellipse
       style="opacity:1;fill:#ffffff;fill-opacity:1;stroke:none;stroke-opacity:1;filter:url(#filter4445)"
       id="path3571"
       transform="matrix(1.2051937,0,0,-1.1161703,-128.35184,-141.34944)"
       cx="428.36801"
       cy="-1126.4264"
       rx="138.06798"
       ry="136.92218" /><ellipse
       style="opacity:0.03299997;fill:#ffffff;fill-opacity:1;stroke:none;stroke-opacity:1;filter:url(#filter4445-4)"
       id="path3571-0"
       transform="matrix(1.2051937,0,0,-1.1161703,-108.39069,-150.48994)"
       cx="428.36801"
       cy="-1126.4264"
       rx="138.06798"
       ry="136.92218" /></g></svg>